<mxfile host="app.diagrams.net" modified="2023-03-24T21:58:40.350Z" agent="5.0 (Windows NT 10.0; Win64; x64) AppleWebKit/537.36 (KHTML, like Gecko) Chrome/111.0.0.0 Safari/537.36" etag="ioZZwm74iEYvRGCwapRf" version="20.8.20" type="github">
  <diagram id="C5RBs43oDa-KdzZeNtuy" name="Page-1">
    <mxGraphModel dx="1434" dy="764" grid="1" gridSize="10" guides="1" tooltips="1" connect="1" arrows="1" fold="1" page="1" pageScale="1" pageWidth="827" pageHeight="1169" math="0" shadow="0">
      <root>
        <mxCell id="WIyWlLk6GJQsqaUBKTNV-0" />
        <mxCell id="WIyWlLk6GJQsqaUBKTNV-1" parent="WIyWlLk6GJQsqaUBKTNV-0" />
        <mxCell id="WIyWlLk6GJQsqaUBKTNV-2" value="" style="rounded=0;html=1;jettySize=auto;orthogonalLoop=1;fontSize=11;endArrow=block;endFill=0;endSize=8;strokeWidth=1;shadow=0;labelBackgroundColor=none;edgeStyle=orthogonalEdgeStyle;" parent="WIyWlLk6GJQsqaUBKTNV-1" source="WIyWlLk6GJQsqaUBKTNV-3" target="WIyWlLk6GJQsqaUBKTNV-6" edge="1">
          <mxGeometry relative="1" as="geometry" />
        </mxCell>
        <mxCell id="WIyWlLk6GJQsqaUBKTNV-3" value="user clicks deploy" style="rounded=1;whiteSpace=wrap;html=1;fontSize=12;glass=0;strokeWidth=1;shadow=0;" parent="WIyWlLk6GJQsqaUBKTNV-1" vertex="1">
          <mxGeometry x="385" y="40" width="120" height="40" as="geometry" />
        </mxCell>
        <mxCell id="WIyWlLk6GJQsqaUBKTNV-4" value="Yes" style="rounded=0;html=1;jettySize=auto;orthogonalLoop=1;fontSize=18;endArrow=block;endFill=0;endSize=8;strokeWidth=1;shadow=0;labelBackgroundColor=none;edgeStyle=orthogonalEdgeStyle;jumpSize=6;fontColor=#006600;" parent="WIyWlLk6GJQsqaUBKTNV-1" source="WIyWlLk6GJQsqaUBKTNV-6" edge="1">
          <mxGeometry x="-0.0323" y="-30" relative="1" as="geometry">
            <mxPoint as="offset" />
            <mxPoint x="80" y="290" as="targetPoint" />
          </mxGeometry>
        </mxCell>
        <mxCell id="WIyWlLk6GJQsqaUBKTNV-5" value="No" style="edgeStyle=orthogonalEdgeStyle;rounded=0;html=1;jettySize=auto;orthogonalLoop=1;fontSize=25;endArrow=block;endFill=0;endSize=8;strokeWidth=1;shadow=0;labelBackgroundColor=none;fontColor=#990000;" parent="WIyWlLk6GJQsqaUBKTNV-1" source="WIyWlLk6GJQsqaUBKTNV-6" edge="1">
          <mxGeometry x="-0.082" y="30" relative="1" as="geometry">
            <mxPoint as="offset" />
            <mxPoint x="715" y="270" as="targetPoint" />
          </mxGeometry>
        </mxCell>
        <mxCell id="WIyWlLk6GJQsqaUBKTNV-6" value="has the db changed?&lt;br&gt;do we compare json file or&lt;br&gt;timestamps?" style="rhombus;whiteSpace=wrap;html=1;shadow=0;fontFamily=Helvetica;fontSize=12;align=center;strokeWidth=1;spacing=6;spacingTop=-4;" parent="WIyWlLk6GJQsqaUBKTNV-1" vertex="1">
          <mxGeometry x="290" y="150" width="310" height="80" as="geometry" />
        </mxCell>
        <mxCell id="XLtOkdcxz2thyA0VE0Ew-3" value="NO CHANGES =&amp;gt; UPDATE" style="swimlane;fontStyle=0;childLayout=stackLayout;horizontal=1;startSize=30;horizontalStack=0;resizeParent=1;resizeParentMax=0;resizeLast=0;collapsible=1;marginBottom=0;whiteSpace=wrap;html=1;" vertex="1" parent="WIyWlLk6GJQsqaUBKTNV-1">
          <mxGeometry x="630" y="270" width="400" height="150" as="geometry" />
        </mxCell>
        <mxCell id="XLtOkdcxz2thyA0VE0Ew-9" value="" style="endArrow=none;html=1;rounded=0;exitX=0.228;exitY=0.967;exitDx=0;exitDy=0;exitPerimeter=0;" edge="1" parent="XLtOkdcxz2thyA0VE0Ew-3" source="XLtOkdcxz2thyA0VE0Ew-7">
          <mxGeometry width="50" height="50" relative="1" as="geometry">
            <mxPoint x="20" y="90" as="sourcePoint" />
            <mxPoint x="57" y="30" as="targetPoint" />
          </mxGeometry>
        </mxCell>
        <mxCell id="XLtOkdcxz2thyA0VE0Ew-10" value="" style="endArrow=none;html=1;rounded=0;exitX=0.488;exitY=1.1;exitDx=0;exitDy=0;exitPerimeter=0;entryX=0.48;entryY=0.033;entryDx=0;entryDy=0;entryPerimeter=0;" edge="1" parent="XLtOkdcxz2thyA0VE0Ew-3" source="XLtOkdcxz2thyA0VE0Ew-7" target="XLtOkdcxz2thyA0VE0Ew-4">
          <mxGeometry width="50" height="50" relative="1" as="geometry">
            <mxPoint x="90" y="80" as="sourcePoint" />
            <mxPoint x="140" y="30" as="targetPoint" />
          </mxGeometry>
        </mxCell>
        <mxCell id="XLtOkdcxz2thyA0VE0Ew-11" value="" style="endArrow=none;html=1;rounded=0;exitX=0.724;exitY=0.967;exitDx=0;exitDy=0;exitPerimeter=0;entryX=0.712;entryY=0;entryDx=0;entryDy=0;entryPerimeter=0;" edge="1" parent="XLtOkdcxz2thyA0VE0Ew-3" source="XLtOkdcxz2thyA0VE0Ew-7" target="XLtOkdcxz2thyA0VE0Ew-4">
          <mxGeometry width="50" height="50" relative="1" as="geometry">
            <mxPoint x="140" y="80" as="sourcePoint" />
            <mxPoint x="190" y="30" as="targetPoint" />
          </mxGeometry>
        </mxCell>
        <mxCell id="XLtOkdcxz2thyA0VE0Ew-12" value="" style="endArrow=none;html=1;rounded=0;exitX=0.31;exitY=1.1;exitDx=0;exitDy=0;exitPerimeter=0;" edge="1" parent="XLtOkdcxz2thyA0VE0Ew-3" source="XLtOkdcxz2thyA0VE0Ew-7">
          <mxGeometry width="50" height="50" relative="1" as="geometry">
            <mxPoint x="70" y="80" as="sourcePoint" />
            <mxPoint x="120" y="30" as="targetPoint" />
          </mxGeometry>
        </mxCell>
        <mxCell id="XLtOkdcxz2thyA0VE0Ew-13" value="" style="endArrow=none;html=1;rounded=0;exitX=0.158;exitY=1.2;exitDx=0;exitDy=0;exitPerimeter=0;entryX=0.148;entryY=0.067;entryDx=0;entryDy=0;entryPerimeter=0;" edge="1" parent="XLtOkdcxz2thyA0VE0Ew-3" source="XLtOkdcxz2thyA0VE0Ew-7" target="XLtOkdcxz2thyA0VE0Ew-4">
          <mxGeometry width="50" height="50" relative="1" as="geometry">
            <mxPoint x="10" y="80" as="sourcePoint" />
            <mxPoint x="60" y="30" as="targetPoint" />
          </mxGeometry>
        </mxCell>
        <mxCell id="XLtOkdcxz2thyA0VE0Ew-4" value="type old&amp;nbsp; &amp;nbsp; &amp;nbsp; PARTIAL&amp;nbsp; &amp;nbsp; &amp;nbsp; FULL&amp;nbsp; &amp;nbsp; &amp;nbsp; &amp;nbsp; &amp;nbsp; &amp;nbsp; &amp;nbsp; &amp;nbsp; PARTIAL&amp;nbsp; &amp;nbsp; &amp;nbsp; &amp;nbsp; &amp;nbsp; &amp;nbsp; &amp;nbsp; &amp;nbsp; &amp;nbsp; FULL" style="text;strokeColor=none;fillColor=none;align=left;verticalAlign=middle;spacingLeft=4;spacingRight=4;overflow=hidden;points=[[0,0.5],[1,0.5]];portConstraint=eastwest;rotatable=0;whiteSpace=wrap;html=1;" vertex="1" parent="XLtOkdcxz2thyA0VE0Ew-3">
          <mxGeometry y="30" width="400" height="30" as="geometry" />
        </mxCell>
        <mxCell id="XLtOkdcxz2thyA0VE0Ew-5" value="type new&amp;nbsp; &amp;nbsp; &amp;nbsp;FULL&amp;nbsp; &amp;nbsp; &amp;nbsp; &amp;nbsp; &amp;nbsp; &amp;nbsp;FULL&amp;nbsp; &amp;nbsp; &amp;nbsp; &amp;nbsp; &amp;nbsp; &amp;nbsp; &amp;nbsp; &amp;nbsp; &amp;nbsp;PARTIAL&amp;nbsp; &amp;nbsp; &amp;nbsp; &amp;nbsp; &amp;nbsp; &amp;nbsp; &amp;nbsp; &amp;nbsp; &amp;nbsp;PARTIAL" style="text;strokeColor=none;fillColor=none;align=left;verticalAlign=middle;spacingLeft=4;spacingRight=4;overflow=hidden;points=[[0,0.5],[1,0.5]];portConstraint=eastwest;rotatable=0;whiteSpace=wrap;html=1;" vertex="1" parent="XLtOkdcxz2thyA0VE0Ew-3">
          <mxGeometry y="60" width="400" height="30" as="geometry" />
        </mxCell>
        <mxCell id="XLtOkdcxz2thyA0VE0Ew-6" value="allowed&amp;nbsp; &amp;nbsp; &amp;nbsp; &amp;nbsp; &amp;nbsp;✅&amp;nbsp; &amp;nbsp; &amp;nbsp; &amp;nbsp; &amp;nbsp; &amp;nbsp; &amp;nbsp; &amp;nbsp; ❌ &amp;nbsp; &amp;nbsp; &amp;nbsp; &amp;nbsp; &amp;nbsp; &amp;nbsp; &amp;nbsp; &amp;nbsp; &amp;nbsp; &amp;nbsp;❌&amp;nbsp; &amp;nbsp; &amp;nbsp; &amp;nbsp; &amp;nbsp; &amp;nbsp; &amp;nbsp; &amp;nbsp; &amp;nbsp; &amp;nbsp; &amp;nbsp; &amp;nbsp; &amp;nbsp; &amp;nbsp;❌" style="text;strokeColor=#82b366;fillColor=#d5e8d4;align=left;verticalAlign=middle;spacingLeft=4;spacingRight=4;overflow=hidden;points=[[0,0.5],[1,0.5]];portConstraint=eastwest;rotatable=0;whiteSpace=wrap;html=1;labelBackgroundColor=none;" vertex="1" parent="XLtOkdcxz2thyA0VE0Ew-3">
          <mxGeometry y="90" width="400" height="30" as="geometry" />
        </mxCell>
        <mxCell id="XLtOkdcxz2thyA0VE0Ew-7" value="version&amp;nbsp; &amp;nbsp; &amp;nbsp; &amp;nbsp; &amp;nbsp; &amp;nbsp;=&amp;nbsp; &amp;nbsp; &amp;nbsp; &amp;nbsp; &amp;nbsp; &amp;nbsp; &amp;nbsp; &amp;nbsp; &amp;nbsp; ❌&amp;nbsp; &amp;nbsp; &amp;nbsp; &amp;nbsp; &amp;nbsp; &amp;nbsp; &amp;nbsp; &amp;nbsp; &amp;nbsp; &amp;nbsp;❌&amp;nbsp; &amp;nbsp; &amp;nbsp; &amp;nbsp; &amp;nbsp; &amp;nbsp; &amp;nbsp; &amp;nbsp; &amp;nbsp; &amp;nbsp; &amp;nbsp; &amp;nbsp; &amp;nbsp; &amp;nbsp;&amp;nbsp;❌" style="text;strokeColor=none;fillColor=none;align=left;verticalAlign=middle;spacingLeft=4;spacingRight=4;overflow=hidden;points=[[0,0.5],[1,0.5]];portConstraint=eastwest;rotatable=0;whiteSpace=wrap;html=1;" vertex="1" parent="XLtOkdcxz2thyA0VE0Ew-3">
          <mxGeometry y="120" width="400" height="30" as="geometry" />
        </mxCell>
        <mxCell id="XLtOkdcxz2thyA0VE0Ew-14" value="DB CHANGED - CREATE NEW DEPLOYMENT" style="swimlane;fontStyle=0;childLayout=stackLayout;horizontal=1;startSize=30;horizontalStack=0;resizeParent=1;resizeParentMax=0;resizeLast=0;collapsible=1;marginBottom=0;whiteSpace=wrap;html=1;fontSize=20;fontColor=#120000;" vertex="1" parent="WIyWlLk6GJQsqaUBKTNV-1">
          <mxGeometry x="10" y="300" width="540" height="120" as="geometry" />
        </mxCell>
        <mxCell id="XLtOkdcxz2thyA0VE0Ew-18" value="" style="endArrow=none;html=1;rounded=0;strokeWidth=1;fontSize=19;fontColor=#080000;jumpSize=6;exitX=0.172;exitY=1.033;exitDx=0;exitDy=0;exitPerimeter=0;entryX=0.17;entryY=0.033;entryDx=0;entryDy=0;entryPerimeter=0;" edge="1" parent="XLtOkdcxz2thyA0VE0Ew-14" source="XLtOkdcxz2thyA0VE0Ew-17" target="XLtOkdcxz2thyA0VE0Ew-15">
          <mxGeometry width="50" height="50" relative="1" as="geometry">
            <mxPoint x="50" y="80" as="sourcePoint" />
            <mxPoint x="100" y="30" as="targetPoint" />
          </mxGeometry>
        </mxCell>
        <mxCell id="XLtOkdcxz2thyA0VE0Ew-19" value="" style="endArrow=none;html=1;rounded=0;strokeWidth=1;fontSize=18;fontColor=#080000;jumpSize=6;exitX=0.317;exitY=1.1;exitDx=0;exitDy=0;exitPerimeter=0;" edge="1" parent="XLtOkdcxz2thyA0VE0Ew-14" source="XLtOkdcxz2thyA0VE0Ew-17">
          <mxGeometry width="50" height="50" relative="1" as="geometry">
            <mxPoint x="120" y="80" as="sourcePoint" />
            <mxPoint x="170" y="30" as="targetPoint" />
          </mxGeometry>
        </mxCell>
        <mxCell id="XLtOkdcxz2thyA0VE0Ew-20" value="" style="endArrow=none;html=1;rounded=0;strokeWidth=1;fontSize=18;fontColor=#080000;jumpSize=6;exitX=0.426;exitY=1.133;exitDx=0;exitDy=0;exitPerimeter=0;entryX=0.424;entryY=-0.133;entryDx=0;entryDy=0;entryPerimeter=0;" edge="1" parent="XLtOkdcxz2thyA0VE0Ew-14" source="XLtOkdcxz2thyA0VE0Ew-17" target="XLtOkdcxz2thyA0VE0Ew-15">
          <mxGeometry width="50" height="50" relative="1" as="geometry">
            <mxPoint x="280" y="90" as="sourcePoint" />
            <mxPoint x="330" y="40" as="targetPoint" />
          </mxGeometry>
        </mxCell>
        <mxCell id="XLtOkdcxz2thyA0VE0Ew-21" value="" style="endArrow=none;html=1;rounded=0;strokeWidth=1;fontSize=18;fontColor=#080000;jumpSize=6;exitX=0.556;exitY=1.067;exitDx=0;exitDy=0;exitPerimeter=0;" edge="1" parent="XLtOkdcxz2thyA0VE0Ew-14" source="XLtOkdcxz2thyA0VE0Ew-17">
          <mxGeometry width="50" height="50" relative="1" as="geometry">
            <mxPoint x="250" y="80" as="sourcePoint" />
            <mxPoint x="300" y="30" as="targetPoint" />
          </mxGeometry>
        </mxCell>
        <mxCell id="XLtOkdcxz2thyA0VE0Ew-22" value="" style="endArrow=none;html=1;rounded=0;strokeWidth=1;fontSize=18;fontColor=#080000;jumpSize=6;exitX=0.689;exitY=1.2;exitDx=0;exitDy=0;exitPerimeter=0;entryX=0.691;entryY=0.067;entryDx=0;entryDy=0;entryPerimeter=0;" edge="1" parent="XLtOkdcxz2thyA0VE0Ew-14" source="XLtOkdcxz2thyA0VE0Ew-17" target="XLtOkdcxz2thyA0VE0Ew-15">
          <mxGeometry width="50" height="50" relative="1" as="geometry">
            <mxPoint x="350" y="80" as="sourcePoint" />
            <mxPoint x="400" y="30" as="targetPoint" />
          </mxGeometry>
        </mxCell>
        <mxCell id="XLtOkdcxz2thyA0VE0Ew-23" value="" style="endArrow=none;html=1;rounded=0;strokeWidth=1;fontSize=18;fontColor=#080000;jumpSize=6;exitX=0.833;exitY=1.2;exitDx=0;exitDy=0;exitPerimeter=0;" edge="1" parent="XLtOkdcxz2thyA0VE0Ew-14" source="XLtOkdcxz2thyA0VE0Ew-17">
          <mxGeometry width="50" height="50" relative="1" as="geometry">
            <mxPoint x="400" y="80" as="sourcePoint" />
            <mxPoint x="450" y="30" as="targetPoint" />
          </mxGeometry>
        </mxCell>
        <mxCell id="XLtOkdcxz2thyA0VE0Ew-15" value="type old&amp;nbsp; &amp;nbsp; &amp;nbsp; &lt;span style=&quot;font-size: 12px;&quot;&gt;PARTIAL&amp;nbsp; &amp;nbsp; &amp;nbsp; &amp;nbsp; &amp;nbsp;FULL&amp;nbsp; &amp;nbsp; &amp;nbsp; &amp;nbsp; &amp;nbsp;PARTIAL&amp;nbsp; &amp;nbsp; &amp;nbsp; &amp;nbsp;FULL&amp;nbsp; &amp;nbsp; &amp;nbsp; &amp;nbsp; &amp;nbsp; &amp;nbsp; &lt;b&gt;&amp;nbsp;&lt;/b&gt;&lt;/span&gt;&lt;font color=&quot;#660000&quot; style=&quot;font-size: 14px;&quot;&gt;&lt;b&gt;NULL&amp;nbsp; &amp;nbsp; &amp;nbsp; &amp;nbsp; &amp;nbsp; &amp;nbsp; &amp;nbsp; &amp;nbsp; NULL&lt;/b&gt;&lt;/font&gt;" style="text;strokeColor=none;fillColor=none;align=left;verticalAlign=middle;spacingLeft=4;spacingRight=4;overflow=hidden;points=[[0,0.5],[1,0.5]];portConstraint=eastwest;rotatable=0;whiteSpace=wrap;html=1;fontSize=19;fontColor=#080000;" vertex="1" parent="XLtOkdcxz2thyA0VE0Ew-14">
          <mxGeometry y="30" width="540" height="30" as="geometry" />
        </mxCell>
        <mxCell id="XLtOkdcxz2thyA0VE0Ew-16" value="type new&amp;nbsp; &amp;nbsp; &lt;font style=&quot;font-size: 17px;&quot;&gt;&amp;nbsp;&lt;/font&gt;&lt;font style=&quot;font-size: 18px;&quot;&gt;FULL&amp;nbsp; &amp;nbsp; &amp;nbsp;&amp;nbsp;&lt;/font&gt;FULL&amp;nbsp; &lt;font style=&quot;font-size: 14px;&quot;&gt;PARTIAL&amp;nbsp; &amp;nbsp; &lt;/font&gt;&lt;font style=&quot;font-size: 14px;&quot;&gt;PARTIAL&amp;nbsp; &amp;nbsp; &amp;nbsp;&lt;/font&gt;&lt;font style=&quot;font-size: 15px;&quot;&gt;PARTIAL&amp;nbsp; &amp;nbsp; &amp;nbsp; &lt;/font&gt;&lt;font style=&quot;font-size: 19px;&quot;&gt;FULL&lt;/font&gt;" style="text;strokeColor=none;fillColor=none;align=left;verticalAlign=middle;spacingLeft=4;spacingRight=4;overflow=hidden;points=[[0,0.5],[1,0.5]];portConstraint=eastwest;rotatable=0;whiteSpace=wrap;html=1;fontSize=19;fontColor=#080000;" vertex="1" parent="XLtOkdcxz2thyA0VE0Ew-14">
          <mxGeometry y="60" width="540" height="30" as="geometry" />
        </mxCell>
        <mxCell id="XLtOkdcxz2thyA0VE0Ew-17" value="version&amp;nbsp; &amp;nbsp; &amp;nbsp; &amp;nbsp; &lt;font style=&quot;font-size: 23px;&quot;&gt;↑&amp;nbsp; &amp;nbsp; &amp;nbsp; &amp;nbsp; &amp;nbsp; &amp;nbsp;↑&amp;nbsp; &amp;nbsp; &amp;nbsp; &amp;nbsp;↑&amp;nbsp; &amp;nbsp; &amp;nbsp; &amp;nbsp; &amp;nbsp; &amp;nbsp;↑&amp;nbsp;&lt;/font&gt; &amp;nbsp; &amp;nbsp; &amp;nbsp; &amp;nbsp; &amp;nbsp; 1&amp;nbsp; &amp;nbsp; &amp;nbsp; &amp;nbsp; &amp;nbsp; &amp;nbsp; &amp;nbsp;1" style="text;strokeColor=none;fillColor=none;align=left;verticalAlign=middle;spacingLeft=4;spacingRight=4;overflow=hidden;points=[[0,0.5],[1,0.5]];portConstraint=eastwest;rotatable=0;whiteSpace=wrap;html=1;fontSize=20;fontColor=#080000;" vertex="1" parent="XLtOkdcxz2thyA0VE0Ew-14">
          <mxGeometry y="90" width="540" height="30" as="geometry" />
        </mxCell>
      </root>
    </mxGraphModel>
  </diagram>
</mxfile>
